<svg width="154" height="38" viewBox="0 0 154 38" fill="none" xmlns="http://www.w3.org/2000/svg">
<path d="M26.8425 31H25.7808L15.4662 10.3595L17.7638 5.76261C17.987 5.31573 17.9191 4.69011 17.6115 4.36574L16.4974 3.19137C16.1898 2.86699 15.7596 2.96574 15.5359 3.41324L13.7654 6.95635L11.9944 3.41261C11.7711 2.96574 11.3405 2.86637 11.0329 3.19074L9.91966 4.36574C9.61209 4.69011 9.5437 5.31573 9.76738 5.76261L12.0649 10.3595L1.74992 31H0.688268C0.308 31 0 31.4475 0 32V34C0 34.5525 0.308 35 0.688268 35H26.8425C27.2227 35 27.5307 34.5525 27.5307 34V32C27.5307 31.4475 27.2227 31 26.8425 31ZM13.7654 21.0001L18.7708 31H8.75993L13.7654 21.0001Z" fill="#02A695"/>
<path d="M41.9307 14.72L58.8807 13.67L54.8607 23.9L52.1307 22.97L54.7407 16.34L44.8107 17.03L45.6507 32.72L59.2107 30.68L59.4807 33.23L42.8907 35.48L41.9307 14.72ZM81.4829 28.16L73.5629 29.06L73.3229 26.51L80.4929 25.76L75.6629 13.94L78.0029 13.04L87.2429 34.67L84.5429 35.69L81.4829 28.16ZM73.6229 16.55L76.1129 17.3L68.6129 35.81L66.0629 35.12L73.6229 16.55ZM113.829 16.31L106.779 17.54L106.569 16.22L98.5592 17.51V35.69H95.7992V15.35L107.439 13.58L107.649 14.93L116.289 13.4L119.139 35.18L116.229 35.63L113.829 16.31ZM105.669 19.46H108.429V35.69L105.639 35.72L105.669 19.46ZM133.302 24.53L137.202 26.24L143.142 17.42L127.632 15.62L128.022 13.16L144.702 15.08L146.412 17.3L138.162 29.48L132.132 26.84L133.302 24.53ZM128.232 17.69L130.962 17.6L131.562 35.54L128.802 35.63L128.232 17.69Z" fill="white"/>
</svg>
