<svg width="15" height="16" viewBox="0 0 15 16" fill="none" xmlns="http://www.w3.org/2000/svg">
<path d="M7.48242 15.06C6.48242 15.06 5.55576 14.88 4.70242 14.52C3.84909 14.16 3.10242 13.66 2.46242 13.02C1.82242 12.3667 1.32242 11.6133 0.962422 10.76C0.615755 9.90667 0.442422 8.98667 0.442422 8C0.442422 7.01333 0.622422 6.09333 0.982422 5.24C1.34242 4.38667 1.84242 3.64 2.48242 3C3.12242 2.34667 3.86909 1.84 4.72242 1.48C5.58909 1.12 6.52242 0.94 7.52242 0.94C8.52242 0.94 9.44909 1.12 10.3024 1.48C11.1691 1.82667 11.9158 2.32 12.5424 2.96C13.1824 3.6 13.6758 4.34667 14.0224 5.2C14.3824 6.04 14.5624 6.96 14.5624 7.96C14.5624 8.96 14.3824 9.89333 14.0224 10.76C13.6624 11.6133 13.1558 12.3667 12.5024 13.02C11.8624 13.66 11.1158 14.16 10.2624 14.52C9.40909 14.88 8.48242 15.06 7.48242 15.06ZM7.48242 14.16C8.34909 14.16 9.15576 14 9.90242 13.68C10.6491 13.36 11.3024 12.92 11.8624 12.36C12.4224 11.8 12.8558 11.1467 13.1624 10.4C13.4691 9.64 13.6224 8.82667 13.6224 7.96C13.6224 7.09333 13.4691 6.28667 13.1624 5.54C12.8558 4.79333 12.4291 4.14667 11.8824 3.6C11.3358 3.05333 10.6891 2.62667 9.94242 2.32C9.20909 2 8.40242 1.84 7.52242 1.84C6.64242 1.84 5.82242 2 5.06242 2.32C4.31576 2.62667 3.66909 3.06667 3.12242 3.64C2.57576 4.2 2.14909 4.85333 1.84242 5.6C1.53576 6.33333 1.38242 7.13333 1.38242 8C1.38242 8.86667 1.53576 9.67333 1.84242 10.42C2.14909 11.1667 2.57576 11.82 3.12242 12.38C3.66909 12.94 4.31576 13.38 5.06242 13.7C5.80909 14.0067 6.61576 14.16 7.48242 14.16ZM7.70242 12.12C6.88909 12.12 6.16242 11.9467 5.52242 11.6C4.88242 11.2533 4.38242 10.7733 4.02242 10.16C3.66242 9.53333 3.48242 8.81333 3.48242 8C3.48242 7.18667 3.66242 6.47333 4.02242 5.86C4.38242 5.23333 4.88242 4.74667 5.52242 4.4C6.16242 4.05333 6.88909 3.88 7.70242 3.88C8.40909 3.88 9.04242 4.02667 9.60242 4.32C10.1758 4.6 10.6224 4.99333 10.9424 5.5L9.80242 6.32C9.54909 5.94667 9.23576 5.67333 8.86242 5.5C8.50242 5.32667 8.10909 5.24 7.68242 5.24C7.16242 5.24 6.70242 5.36 6.30242 5.6C5.91576 5.82667 5.60242 6.14667 5.36242 6.56C5.12242 6.96 5.00242 7.44 5.00242 8C5.00242 8.56 5.12242 9.04667 5.36242 9.46C5.60242 9.86 5.91576 10.18 6.30242 10.42C6.70242 10.6467 7.16242 10.76 7.68242 10.76C8.10909 10.76 8.50242 10.6733 8.86242 10.5C9.23576 10.3267 9.54909 10.0533 9.80242 9.68L10.9424 10.48C10.6224 10.9867 10.1758 11.3867 9.60242 11.68C9.04242 11.9733 8.40909 12.12 7.70242 12.12Z" fill="white"/>
</svg>
